<svg width="160" height="38" viewBox="0 0 160 38" fill="none" xmlns="http://www.w3.org/2000/svg">
<path d="M46.0791 21.9403L36.5506 10.7748H34.2539V28.8302H37.821V17.7624L47.1786 28.8302H49.6462V10.7748H46.0791V21.9403Z" fill="#F59331"/>
<path d="M65.9457 21.867C65.9457 19.7903 65.3105 18.1777 64.0644 16.9806C62.8184 15.7834 61.2059 15.1726 59.2757 15.1726C57.2234 15.1726 55.562 15.8323 54.2671 17.1516C52.9722 18.4709 52.337 20.1323 52.337 22.1602C52.337 24.0903 52.9478 25.7517 54.1938 27.0955C55.4399 28.4393 57.2234 29.1234 59.5689 29.1234C61.7678 29.1234 63.6979 28.5125 65.3838 27.2909L64.0156 24.8722C62.8672 25.654 61.157 26.2159 59.7155 26.2159C57.6143 26.2159 56.3194 25.2631 55.8308 23.3818H65.8235C65.8968 22.8443 65.9457 22.3312 65.9457 21.867ZM59.2757 18.0311C61.0348 18.0311 62.2809 19.0817 62.5985 20.8164H55.8308C56.2461 19.0817 57.541 18.0311 59.2757 18.0311Z" fill="#F59331"/>
<path d="M75.3601 22.1358L79.5136 15.5146H75.6289L73.1856 19.5948L70.9134 15.5146H66.9799L70.9134 22.038L66.4912 28.8302H70.4737L73.1368 24.4568L75.6777 28.8302H79.6357L75.3601 22.1358Z" fill="#F59331"/>
<path d="M90.0618 25.3364C89.2555 25.8006 88.4981 26.0205 87.8384 26.0205C86.5924 26.0205 85.9572 25.2386 85.9572 23.675V18.3976H90.355V15.5146H85.9572V10.7992H82.5367V15.5146H80.3378V18.3976H82.5122V23.8949C82.5122 27.3398 84.1003 29.1478 87.1543 29.1478C88.6936 29.1478 89.9885 28.7813 91.0879 28.0483L90.0618 25.3364Z" fill="#F59331"/>
<path d="M100.371 15.1726C98.6848 15.1726 97.2922 15.8323 96.1439 17.1516V15.5146H92.7234V34.303H96.1683V27.2909C97.3166 28.537 98.7092 29.1478 100.346 29.1478C102.227 29.1478 103.791 28.4637 105.037 27.1199C106.283 25.7761 106.918 24.1148 106.918 22.1602C106.918 20.2056 106.308 18.5442 105.062 17.2005C103.816 15.8567 102.252 15.1726 100.371 15.1726ZM99.7598 25.996C98.6848 25.996 97.8052 25.6296 97.1211 24.8966C96.437 24.1636 96.095 23.2596 96.095 22.1846C96.095 21.1096 96.437 20.2056 97.1211 19.4726C97.8052 18.7397 98.6848 18.3732 99.7598 18.3732C100.859 18.3732 101.739 18.7397 102.423 19.4726C103.107 20.2056 103.449 21.1096 103.449 22.1846C103.449 23.2596 103.107 24.1636 102.423 24.8966C101.739 25.6296 100.859 25.996 99.7598 25.996Z" fill="#F59331"/>
<path d="M112.798 10.2617H109.353V28.8302H112.798V10.2617Z" fill="#F59331"/>
<path d="M126.03 17.1027C124.858 15.8078 123.441 15.1726 121.779 15.1726C119.898 15.1726 118.31 15.8323 117.064 17.1516C115.818 18.4465 115.182 20.1079 115.182 22.1113C115.182 24.1148 115.793 25.8006 117.039 27.1443C118.285 28.4881 119.873 29.1478 121.779 29.1478C123.465 29.1478 124.882 28.537 126.03 27.2909V28.8302H129.304V15.5146H126.03V17.1027ZM126.079 22.1602C126.079 23.2352 125.713 24.1392 125.004 24.8966C124.296 25.654 123.416 26.0205 122.341 26.0205C121.266 26.0205 120.386 25.654 119.678 24.8966C118.969 24.1392 118.627 23.2352 118.627 22.1602C118.627 21.1096 118.969 20.2056 119.654 19.4482C120.362 18.6908 121.242 18.3243 122.341 18.3243C123.416 18.3243 124.296 18.6908 125.004 19.4482C125.713 20.2056 126.079 21.1096 126.079 22.1602Z" fill="#F59331"/>
<path d="M138.754 29.1234C141.491 29.1234 143.86 27.7552 145.009 25.6051L142.223 23.9682C141.637 25.1409 140.22 25.9716 138.827 25.9716C137.777 25.9716 136.873 25.6051 136.164 24.8966C135.456 24.1636 135.114 23.2596 135.114 22.1602C135.114 21.0852 135.48 20.1812 136.189 19.4726C136.897 18.7397 137.801 18.3732 138.901 18.3732C140.342 18.3732 141.491 19.0573 142.297 20.4011L145.058 18.8863C143.958 16.5164 141.564 15.1726 138.852 15.1726C136.751 15.1726 135.04 15.8323 133.697 17.1516C132.353 18.4465 131.693 20.1323 131.693 22.1602C131.693 24.1881 132.353 25.8739 133.672 27.1688C134.992 28.4637 136.677 29.1234 138.754 29.1234Z" fill="#F59331"/>
<path d="M160 21.867C160 19.7903 159.365 18.1777 158.119 16.9806C156.873 15.7834 155.26 15.1726 153.33 15.1726C151.278 15.1726 149.616 15.8323 148.321 17.1516C147.027 18.4709 146.391 20.1323 146.391 22.1602C146.391 24.0903 147.002 25.7517 148.248 27.0955C149.494 28.4393 151.278 29.1234 153.623 29.1234C155.822 29.1234 157.752 28.5125 159.438 27.2909L158.07 24.8722C156.922 25.654 155.211 26.2159 153.77 26.2159C151.669 26.2159 150.374 25.2631 149.885 23.3818H159.878C159.951 22.8443 160 22.3312 160 21.867ZM153.33 18.0311C155.089 18.0311 156.335 19.0817 156.653 20.8164H149.885C150.3 19.0817 151.595 18.0311 153.33 18.0311Z" fill="#F59331"/>
<rect y="6.35254" width="9.77287" height="31.2732" rx="4.88643" fill="white"/>
<rect x="14.6593" width="9.77287" height="23.9435" rx="4.88643" fill="white"/>
<rect x="14.6593" y="27.8525" width="9.77287" height="9.77287" rx="4.88643" fill="#F59331"/>
</svg>
